<svg width="96" height="96" viewBox="0 0 96 96" fill="none" xmlns="http://www.w3.org/2000/svg">
<g clip-path="url(#clip0_1268_664)">
<path d="M48 96C74.5097 96 96 74.5097 96 48C96 21.4903 74.5097 0 48 0C21.4903 0 0 21.4903 0 48C0 74.5097 21.4903 96 48 96Z" fill="#0047BB"/>
<path fill-rule="evenodd" clip-rule="evenodd" d="M48 30.5586C46.3128 30.3476 45.2191 30.3476 45.2191 30.3476H42.5592V21.2796H37.9647V30.3476H29.743V34.942H37.9647V61.1788H29.743V65.7733H37.9647V74.9622H42.5592V65.7733H45.2191C45.2191 65.7733 46.3128 65.7669 48 65.5461V74.9622H52.5944V64.5973C58.6164 62.8656 66.136 58.584 66.136 48C66.136 37.4159 58.6164 33.1779 52.5944 31.4809V21.2796H48V30.5586ZM42.5592 61.1788H37.9647V65.7733H42.5592V61.1788ZM42.5592 61.1788H45.2191C45.2191 61.1788 60.8161 61.1788 60.8161 48C60.8161 34.8211 45.2191 34.942 45.2191 34.942H42.5592V30.3476H37.9647V34.942H42.5592V61.1788Z" fill="white"/>
</g>
<defs>
<clipPath id="clip0_1268_664">
<rect width="96" height="96" fill="white"/>
</clipPath>
</defs>
</svg>
